<svg xmlns="http://www.w3.org/2000/svg" viewBox="0 0 900 520" role="img" aria-label="Burger and fries meal">
  <defs>
    <linearGradient id="bg" x1="0" y1="0" x2="1" y2="1">
      <stop offset="0" stop-color="#fff7ed"/>
      <stop offset=".5" stop-color="#fef3c7"/>
      <stop offset="1" stop-color="#fb923c"/>
    </linearGradient>
    <filter id="shadow" x="-20%" y="-20%" width="140%" height="140%">
      <feDropShadow dx="0" dy="18" stdDeviation="18" flood-color="#7c2d12" flood-opacity=".22"/>
    </filter>
  </defs>
  <rect width="900" height="520" fill="url(#bg)"/>
  <circle cx="124" cy="98" r="70" fill="#ef4444" opacity=".14"/>
  <circle cx="760" cy="398" r="112" fill="#16a34a" opacity=".12"/>
  <g filter="url(#shadow)">
    <path d="M238 230h150l-18 178H256z" fill="#dc2626"/>
    <path d="M254 210h118l18 44H236z" fill="#ef4444"/>
    <g stroke="#facc15" stroke-width="18" stroke-linecap="round">
      <path d="M270 210l8 142"/>
      <path d="M304 198l2 150"/>
      <path d="M338 205l-8 148"/>
      <path d="M366 216l-20 136"/>
    </g>
  </g>
  <g filter="url(#shadow)">
    <ellipse cx="560" cy="320" rx="186" ry="74" fill="#f97316"/>
    <path d="M380 300c20-82 92-132 182-132s158 50 178 132z" fill="#fbbf24"/>
    <path d="M384 306h354c-20 36-76 62-176 62s-158-22-178-62z" fill="#7c2d12"/>
    <path d="M392 276c38 26 68 26 102 0 36 28 78 28 116 0 38 28 72 28 118 0v38H392z" fill="#22c55e"/>
    <rect x="402" y="332" width="320" height="34" rx="17" fill="#facc15"/>
    <rect x="410" y="366" width="304" height="44" rx="22" fill="#f59e0b"/>
    <g fill="#fff7ed">
      <circle cx="510" cy="214" r="7"/>
      <circle cx="562" cy="198" r="6"/>
      <circle cx="616" cy="222" r="7"/>
      <circle cx="470" cy="244" r="6"/>
      <circle cx="668" cy="250" r="6"/>
    </g>
  </g>
</svg>
