<svg xmlns="http://www.w3.org/2000/svg" viewBox="0 0 900 520" role="img" aria-label="Healthy cafe bowl">
  <defs>
    <linearGradient id="bg" x1="0" y1="0" x2="1" y2="1">
      <stop offset="0" stop-color="#f0fdf4"/>
      <stop offset=".55" stop-color="#dcfce7"/>
      <stop offset="1" stop-color="#fdba74"/>
    </linearGradient>
    <filter id="shadow" x="-20%" y="-20%" width="140%" height="140%">
      <feDropShadow dx="0" dy="18" stdDeviation="18" flood-color="#14532d" flood-opacity=".18"/>
    </filter>
  </defs>
  <rect width="900" height="520" fill="url(#bg)"/>
  <circle cx="150" cy="420" r="110" fill="#fff7ed" opacity=".55"/>
  <circle cx="780" cy="110" r="92" fill="#16a34a" opacity=".13"/>
  <g filter="url(#shadow)">
    <ellipse cx="450" cy="292" rx="274" ry="148" fill="#ffffff"/>
    <ellipse cx="450" cy="292" rx="220" ry="108" fill="#e2e8f0"/>
    <path d="M260 300c38-88 145-140 252-118 94 19 158 82 166 150-72 78-294 92-418-32z" fill="#bbf7d0"/>
    <circle cx="356" cy="274" r="42" fill="#22c55e"/>
    <circle cx="432" cy="238" r="38" fill="#84cc16"/>
    <circle cx="524" cy="274" r="44" fill="#16a34a"/>
    <circle cx="478" cy="340" r="40" fill="#f97316"/>
    <circle cx="382" cy="350" r="34" fill="#ef4444"/>
    <circle cx="560" cy="348" r="31" fill="#facc15"/>
    <g fill="#ffffff" opacity=".88">
      <circle cx="342" cy="260" r="8"/>
      <circle cx="422" cy="229" r="7"/>
      <circle cx="520" cy="260" r="9"/>
      <circle cx="470" cy="331" r="7"/>
      <circle cx="389" cy="341" r="8"/>
      <circle cx="556" cy="339" r="7"/>
    </g>
    <path d="M290 390c92 44 236 54 348-2" fill="none" stroke="#94a3b8" stroke-width="9" stroke-linecap="round"/>
  </g>
</svg>
