<svg xmlns="http://www.w3.org/2000/svg" viewBox="0 0 900 520" role="img" aria-label="Restaurant dining table">
  <defs>
    <linearGradient id="bg" x1="0" y1="0" x2="1" y2="1">
      <stop offset="0" stop-color="#fff7ed"/>
      <stop offset=".58" stop-color="#ffedd5"/>
      <stop offset="1" stop-color="#fed7aa"/>
    </linearGradient>
    <filter id="shadow" x="-20%" y="-20%" width="140%" height="140%">
      <feDropShadow dx="0" dy="18" stdDeviation="18" flood-color="#7c2d12" flood-opacity=".18"/>
    </filter>
  </defs>
  <rect width="900" height="520" fill="url(#bg)"/>
  <circle cx="152" cy="386" r="104" fill="#16a34a" opacity=".12"/>
  <circle cx="760" cy="112" r="104" fill="#ea580c" opacity=".12"/>
  <g filter="url(#shadow)">
    <ellipse cx="450" cy="284" rx="300" ry="154" fill="#ffffff"/>
    <ellipse cx="450" cy="284" rx="246" ry="118" fill="#f8fafc" stroke="#e2e8f0" stroke-width="8"/>
    <circle cx="450" cy="284" r="76" fill="#ea580c"/>
    <circle cx="450" cy="284" r="56" fill="#fb923c"/>
    <path d="M406 286c34-28 72-32 116-10" fill="none" stroke="#fff7ed" stroke-width="12" stroke-linecap="round" opacity=".82"/>
    <path d="M408 320c38 20 78 21 120 0" fill="none" stroke="#7c2d12" stroke-width="10" stroke-linecap="round" opacity=".26"/>
    <circle cx="320" cy="250" r="48" fill="#dcfce7"/>
    <circle cx="584" cy="338" r="48" fill="#fef3c7"/>
    <circle cx="596" cy="230" r="42" fill="#fee2e2"/>
    <path d="M238 188v190" stroke="#64748b" stroke-width="12" stroke-linecap="round"/>
    <path d="M210 188v76" stroke="#64748b" stroke-width="10" stroke-linecap="round"/>
    <path d="M238 188v76" stroke="#64748b" stroke-width="10" stroke-linecap="round"/>
    <path d="M266 188v76" stroke="#64748b" stroke-width="10" stroke-linecap="round"/>
    <path d="M672 196c48 48 48 104 0 152" fill="none" stroke="#64748b" stroke-width="14" stroke-linecap="round"/>
    <path d="M672 340v50" stroke="#64748b" stroke-width="14" stroke-linecap="round"/>
  </g>
</svg>
