<svg xmlns="http://www.w3.org/2000/svg" viewBox="0 0 900 520" role="img" aria-label="Indian food spread">
  <defs>
    <linearGradient id="bg" x1="0" y1="0" x2="1" y2="1">
      <stop offset="0" stop-color="#fff7ed"/>
      <stop offset="0.52" stop-color="#fed7aa"/>
      <stop offset="1" stop-color="#fb923c"/>
    </linearGradient>
    <radialGradient id="plate" cx="50%" cy="45%" r="62%">
      <stop offset="0" stop-color="#ffffff"/>
      <stop offset="1" stop-color="#f8fafc"/>
    </radialGradient>
    <filter id="shadow" x="-20%" y="-20%" width="140%" height="140%">
      <feDropShadow dx="0" dy="16" stdDeviation="16" flood-color="#7c2d12" flood-opacity=".22"/>
    </filter>
  </defs>
  <rect width="900" height="520" fill="url(#bg)"/>
  <circle cx="128" cy="86" r="54" fill="#16a34a" opacity=".14"/>
  <circle cx="780" cy="96" r="74" fill="#dc2626" opacity=".12"/>
  <circle cx="786" cy="430" r="96" fill="#fff7ed" opacity=".45"/>
  <g filter="url(#shadow)">
    <ellipse cx="450" cy="292" rx="290" ry="146" fill="url(#plate)"/>
    <ellipse cx="450" cy="292" rx="238" ry="112" fill="none" stroke="#e2e8f0" stroke-width="8"/>
  </g>
  <g filter="url(#shadow)">
    <circle cx="360" cy="262" r="74" fill="#9a3412"/>
    <circle cx="360" cy="262" r="58" fill="#ea580c"/>
    <circle cx="342" cy="246" r="10" fill="#fed7aa"/>
    <circle cx="386" cy="282" r="13" fill="#fed7aa"/>
    <circle cx="378" cy="238" r="8" fill="#16a34a"/>
    <circle cx="330" cy="284" r="7" fill="#16a34a"/>
  </g>
  <g filter="url(#shadow)">
    <path d="M506 190c62-22 132 18 146 82 12 55-24 106-83 122-58 16-122-10-148-62-29-57 18-121 85-142z" fill="#f8fafc"/>
    <path d="M516 222c40-16 90 8 104 48 13 37-16 72-58 84-45 13-91-8-107-44-17-38 18-75 61-88z" fill="#facc15"/>
    <path d="M490 286c30-18 71-18 107-2 14 6 22 15 18 22-4 8-20 7-34 1-31-12-58-9-83 5-15 8-32 6-35-3-3-8 9-17 27-23z" fill="#dc2626" opacity=".72"/>
  </g>
  <path d="M205 272c42-58 114-76 168-45 26 15 29 51 6 73-46 44-129 34-174-28z" fill="#fef3c7" stroke="#fdba74" stroke-width="7" filter="url(#shadow)"/>
  <path d="M241 256c35-26 68-30 102-12" fill="none" stroke="#f97316" stroke-width="7" stroke-linecap="round" opacity=".45"/>
  <g fill="#14532d" opacity=".85">
    <circle cx="319" cy="198" r="7"/>
    <circle cx="602" cy="205" r="8"/>
    <circle cx="613" cy="361" r="7"/>
    <circle cx="246" cy="332" r="8"/>
  </g>
</svg>
