<svg xmlns="http://www.w3.org/2000/svg" viewBox="0 0 900 520" role="img" aria-label="Pizza restaurant food">
  <defs>
    <linearGradient id="bg" x1="0" y1="0" x2="1" y2="1">
      <stop offset="0" stop-color="#fff7ed"/>
      <stop offset=".55" stop-color="#fee2e2"/>
      <stop offset="1" stop-color="#f97316"/>
    </linearGradient>
    <filter id="shadow" x="-20%" y="-20%" width="140%" height="140%">
      <feDropShadow dx="0" dy="18" stdDeviation="18" flood-color="#7c2d12" flood-opacity=".2"/>
    </filter>
  </defs>
  <rect width="900" height="520" fill="url(#bg)"/>
  <circle cx="140" cy="120" r="78" fill="#16a34a" opacity=".14"/>
  <circle cx="765" cy="420" r="112" fill="#fff7ed" opacity=".36"/>
  <g filter="url(#shadow)">
    <circle cx="450" cy="270" r="172" fill="#b45309"/>
    <circle cx="450" cy="270" r="152" fill="#fbbf24"/>
    <path d="M450 270 608 205a170 170 0 0 1-4 137z" fill="#f97316"/>
    <path d="M450 270 320 158a170 170 0 0 1 196-48z" fill="#f97316"/>
    <path d="M450 270 308 362a170 170 0 0 1-19-155z" fill="#f97316"/>
    <circle cx="386" cy="228" r="17" fill="#dc2626"/>
    <circle cx="506" cy="188" r="16" fill="#dc2626"/>
    <circle cx="544" cy="306" r="18" fill="#dc2626"/>
    <circle cx="390" cy="336" r="16" fill="#dc2626"/>
    <circle cx="462" cy="276" r="15" fill="#dc2626"/>
    <circle cx="340" cy="278" r="13" fill="#dc2626"/>
    <g fill="#f8fafc" opacity=".96">
      <ellipse cx="424" cy="184" rx="20" ry="12" transform="rotate(-22 424 184)"/>
      <ellipse cx="566" cy="246" rx="20" ry="12" transform="rotate(18 566 246)"/>
      <ellipse cx="456" cy="372" rx="20" ry="12" transform="rotate(-8 456 372)"/>
      <ellipse cx="356" cy="214" rx="18" ry="11" transform="rotate(28 356 214)"/>
      <ellipse cx="508" cy="316" rx="18" ry="11" transform="rotate(-28 508 316)"/>
    </g>
    <g fill="#14532d">
      <ellipse cx="494" cy="232" rx="10" ry="18" transform="rotate(42 494 232)"/>
      <ellipse cx="410" cy="292" rx="10" ry="18" transform="rotate(-20 410 292)"/>
      <ellipse cx="520" cy="380" rx="10" ry="18" transform="rotate(18 520 380)"/>
      <ellipse cx="328" cy="330" rx="10" ry="18" transform="rotate(35 328 330)"/>
    </g>
  </g>
</svg>
